<svg xmlns="http://www.w3.org/2000/svg" xmlns:xlink="http://www.w3.org/1999/xlink" viewBox="0 0 413.56 399.16"><defs><style>.cls-1{fill:#bfc193;}.cls-2{fill:#8f916e;}.cls-3{fill:#5b606a;}.cls-4{fill:#7f7f6b;}.cls-5{fill:#fff;}.cls-10,.cls-6,.cls-9{fill:none;}.cls-7{fill:#0d141c;}.cls-8{fill:#0d2033;}.cls-9{stroke:#7f7f6b;stroke-width:18.52px;}.cls-10,.cls-9{stroke-miterlimit:10;}.cls-10{stroke:#0d2033;stroke-linecap:round;stroke-width:7.41px;}</style><symbol id="New_Symbol" data-name="New Symbol" viewBox="0 0 413.56 399.17"><path class="cls-1" d="M309.51,145.11s.25-8,15.07-8-7.53,28.55-7.53,41.36-13.22,18.47-13.22,5.13S309.51,145.11,309.51,145.11Z"/><path class="cls-1" d="M104,145.11s-.24-8-15.06-8S96.51,167,96.51,178.5s13.21,18.47,13.21,5.13S104,145.11,104,145.11Z"/><path class="cls-2" d="M206.78,45.1C150,45.1,104,81.68,104,145.11v247.4H309.51V145.11C309.51,81.68,263.52,45.1,206.78,45.1Z"/><path class="cls-3" d="M179.34,56.58c-3.76-3.85-17.8-17.14-.75-36s56-33.88,92-2.28,63,36.72,73.76,20.46c0,0-21.77,72.56-71.13,35S199,76.66,179.34,56.58Z"/><path class="cls-4" d="M187.33,129.73a24.42,24.42,0,0,0-1.07-12.11,8.14,8.14,0,0,0-8.29-5.28c-7.73.6-22.9,3.82-40.46,18.34,0,0-21.36,21.14,0,9.51S187.33,129.73,187.33,129.73Z"/><path class="cls-4" d="M187.33,129.73s3.82,13.25-21.18,14.9-28.64-4.44-28.64-4.44A217.77,217.77,0,0,1,187.33,129.73Z"/><path class="cls-5" d="M187.33,129.73h0a6.07,6.07,0,0,1-6.33,7.9c-10.83-1-29.13-1.75-43.49,2.56,0,0,13.94-18,40.32-17.52A10.18,10.18,0,0,1,187.33,129.73Z"/><path class="cls-4" d="M228.28,129.73a24.42,24.42,0,0,1,1.07-12.11,8.14,8.14,0,0,1,8.29-5.28c7.73.6,22.9,3.82,40.46,18.34,0,0,21.36,21.14,0,9.51S228.28,129.73,228.28,129.73Z"/><path class="cls-1" d="M220.68,165a9.72,9.72,0,0,1,7.37-.39c-2-18.9-8-54.52-17.13-54.52-8.92,0-18.14,34-21.68,53.22a8.1,8.1,0,0,1,9.09.75c-8.46-.34-10.59,10.62-10.59,10.62,0,9.54,9.19,17.28,20.52,17.28s20.53-7.74,20.53-17.28C228.79,174.65,228.09,166.73,220.68,165Z"/><path class="cls-6" d="M203.18,101.54l-.16.33Z"/><path class="cls-6" d="M196.29,118.47a.82.82,0,0,0,.42-.34A5.55,5.55,0,0,1,195,119Z"/><path class="cls-6" d="M197.59,116.43l-.83,1.63Z"/><path class="cls-6" d="M201.41,108.92l-.68,1.33Z"/><path class="cls-6" d="M204.09,99.74l-.45.89C203.79,100.33,204,100,204.09,99.74Z"/><path class="cls-6" d="M206.59,94.8l-.77,1.52Z"/><path class="cls-6" d="M202.53,106.73l-.26.5Z"/><path class="cls-6" d="M205.67,96.62l-.39.78Z"/><path class="cls-6" d="M208.68,90.75s.54-1.11,1-2.38Z"/><polygon class="cls-6" points="220.18 113.52 220.18 113.52 223.47 113.17 220.18 113.52 220.18 113.52"/><polygon class="cls-6" points="221.47 116.05 221.29 114.43 221.47 116.05 221.47 116.05"/><polygon class="cls-6" points="197.09 119.46 206.34 101.66 197.09 119.46 197.09 119.46"/><path class="cls-6" d="M204,103.82l-.56,1.09Z"/><path class="cls-6" d="M205.89,100.14l-1,1.9Z"/><path class="cls-6" d="M206.34,101.66l-.55,6.09a2.6,2.6,0,0,0-2.55,1.76c0,1.92,2.48,2.29,2.48,2.29l-.09,1h0l-.21,3.07,6.39-.29-.25-2.84h0l-.11-1s2.51-.42,2.44-2.34a2.59,2.59,0,0,0-2.58-1.71l-1-12.93-.28-2.6c-1.08,2.17-2.34,4.46-3.41,6.56Z"/><path class="cls-6" d="M206.6,98.73l-.41.81Z"/><path class="cls-6" d="M199.06,113.53l-1,1.93Z"/><polygon class="cls-6" points="196.25 119.92 193.17 119.64 196.25 119.92 196.25 119.92"/><path class="cls-6" d="M207.66,82.92a2.81,2.81,0,0,0-3,2.55,3.19,3.19,0,0,0,2.47,3.24c2.2.5,2.58-.33,2.58-.34a12,12,0,0,0,.84-2.86C210.71,83.8,208.82,83,207.66,82.92Z"/><path class="cls-6" d="M197,113.72l.75-1.47Z"/><path class="cls-6" d="M202.7,102.5,199.94,108Z"/><path class="cls-6" d="M206.59,94.8l2.09-4a8.3,8.3,0,0,1-1.91-.49l.11,1.37Z"/><path class="cls-6" d="M198.35,111.1l-.46.9Z"/><path class="cls-6" d="M199.39,109l-.76,1.5Z"/><polygon class="cls-5" points="205.42 115.85 205.25 118.28 205.25 118.28 212.03 118.09 211.81 115.56 205.42 115.85"/><path class="cls-7" d="M197.09,119.46l9.25-17.8.26-2.93-.41.81-.3.6-1,1.9-.91,1.78-.56,1.09-.92,1.82-.26.5-.86,1.69-.68,1.33-1.67,3.28-1,1.93-.49,1-.83,1.63s0,0,0,.07a.82.82,0,0,1-.42.34L195,119h0l-1.82.68,3.08.28A.86.86,0,0,0,197.09,119.46Z"/><path class="cls-7" d="M205.72,111.8s-2.51-.37-2.48-2.29a3.3,3.3,0,0,0-.12.58c-.22,2.44,2.51,2.69,2.51,2.69h0Z"/><path class="cls-7" d="M211.45,111.75l.11,1h0s2.72-.29,2.46-2.72a2.56,2.56,0,0,0-.13-.59C214,111.33,211.45,111.75,211.45,111.75Z"/><path class="cls-7" d="M206.76,77.18,208,78.71s.42-9.42-.16-21.46c-.5-10.56-1.67-28.42-1.95-32.63a1.06,1.06,0,0,0-1-1l-1.65-.15,2.61,54Z"/><path class="cls-7" d="M205.92,77.51l.05,1s-3.11,1.08-3.57,6.19,2.88,6.9,4.48,6.92l-.11-1.37a4.78,4.78,0,0,1-3.43-5.09c.2-2.24.92-3.44,1.81-4.06a12.24,12.24,0,0,1,2.89-2.4l-1.28-1.53Z"/><path class="cls-7" d="M202.87,147.06l.27-3c-2.53-1.23-4.68-6.72-4.68-6.72C197.83,144.27,202.87,147.06,202.87,147.06Z"/><path class="cls-8" d="M205.63,112.78h0s-2.73-.25-2.51-2.69a3.3,3.3,0,0,1,.12-.58,2.6,2.6,0,0,1,2.55-1.76l.55-6.09-9.25,17.8h0a.86.86,0,0,1-.84.46h0l-3.08-.28-4.33,48,3.91.35,8.94-7.92.75-8.35.43-4.69s-5-2.79-4.41-9.74,6-8.06,6-8.06l.77-11,.18-2.43Z"/><path class="cls-8" d="M197.89,112l.46-.9.28-.56.76-1.5.55-1.09,2.76-5.45.32-.63.16-.33.46-.91.45-.89,1.19-2.34.39-.78.15-.3.77-1.52.29-3.17c-1.6,0-4.94-1.8-4.48-6.92S206,78.52,206,78.52l-.05-1-2.61-54-2.12-.19a.56.56,0,0,0-.61.52l-6.85,89.62,3.29.29.75-1.47Z"/><path class="cls-7" d="M210.66,77.47l1.67-54.07-1.65.18a1.06,1.06,0,0,0-1,1c-.21,4.22-1.07,22.1-1.39,32.67-.36,12,.22,21.45.22,21.45l1.25-1.55Z"/><path class="cls-7" d="M210.31,91.56c1.68-.28,4.5-2.2,4-7-.55-5.11-3.67-6.13-3.67-6.13l0-1-.85-.32-1.25,1.55A10.83,10.83,0,0,1,212,81.8a5.3,5.3,0,0,1,.45,2.71c0,.15,0,.29,0,.44C212.57,86.49,211.6,88.9,210.31,91.56Z"/><path class="cls-7" d="M219.16,137.14c-1.09,5.21-4.57,6.8-4.57,6.8l.33,3S219.9,144.08,219.16,137.14Z"/><path class="cls-8" d="M224.14,119.37l-3.08.33-.88-6.18h0l3.29-.35-8.41-89.49a.57.57,0,0,0-.62-.51l-2.11.23-1.67,54.07,0,1s3.12,1,3.67,6.13c.51,4.75-2.31,6.67-4,7l-.3.61.28,2.6,1,12.93a2.59,2.59,0,0,1,2.58,1.71,2.56,2.56,0,0,1,.13.59c.26,2.43-2.46,2.72-2.46,2.72h0l.25,2.84.22,2.53,1,11.1s5.4,1,6.15,7.95-4.24,9.81-4.24,9.81l.5,4.69.9,8.33,9.08,7.76,3.9-.42Z"/><path class="cls-7" d="M220.18,113.52l.88,6.18,3.08-.33-1.35-.84-.12,0-.39,0a1.37,1.37,0,0,1-.81-2.55l-.18-1.62,2.18-1.26-3.29.35Z"/><path class="cls-5" d="M222.08,116.73l-.52.15-.09-.83h0a1.37,1.37,0,0,0,.81,2.55Z"/><path class="cls-5" d="M223.24,116l.3.24A1.76,1.76,0,0,0,223.24,116Z"/><path class="cls-5" d="M222.08,116.73l.2,1.87.39,0,.12,0a1.36,1.36,0,0,0,1.1-1.48,1.33,1.33,0,0,0-.34-.75Z"/><polygon class="cls-5" points="221.56 116.88 222.08 116.73 223.55 116.3 223.55 116.3 223.54 116.28 223.24 116.04 221.29 114.43 221.47 116.05 221.56 116.88"/><path class="cls-5" d="M195,119a5.55,5.55,0,0,0,1.72-.83s0-.07,0-.07l.83-1.63.49-1,1-1.93,1.67-3.28.68-1.33.86-1.69.26-.5.92-1.82.56-1.09.91-1.78,1-1.9.3-.6.41-.81c1.07-2.1,2.33-4.39,3.41-6.56l.3-.61c1.29-2.66,2.26-5.07,2.21-6.61,0-.15,0-.29,0-.44a4.23,4.23,0,0,0-3.87-4,5.12,5.12,0,0,0-3.46.57c-.89.62-1.61,1.82-1.81,4.06a4.78,4.78,0,0,0,3.43,5.09,8.3,8.3,0,0,0,1.91.49l1-2.38c-.5,1.27-1,2.38-1,2.38l-2.09,4-.77,1.52-.15.3-.39.78-1.19,2.34c-.14.29-.3.59-.45.89l-.46.91-.16.33-.32.63L199.94,108l-.55,1.09-.76,1.5-.28.56-.46.9-.12.25-.75,1.47c-2.49,4.93-2,5.24-2,5.24Zm12.15-30.25a3.19,3.19,0,0,1-2.47-3.24,2.81,2.81,0,0,1,3-2.55c1.16.1,3.05.88,2.9,2.59a12,12,0,0,1-.84,2.86S209.34,89.21,207.14,88.71Z"/><path class="cls-8" d="M196.23,185.22s-2.27-.67-1.73-3.87,3.46-3.46,5.46-2,3.47,3.2.94,4.14S196.5,183.62,196.23,185.22Z"/><path class="cls-8" d="M214.66,186.69s-1.5-3.66,1.44-4.83,4.93.67,4.53,2.41C220,186.69,215.36,185.49,214.66,186.69Z"/><path class="cls-4" d="M228.28,129.73s-3.82,13.25,21.18,14.9,28.64-4.44,28.64-4.44A217.77,217.77,0,0,0,228.28,129.73Z"/><path class="cls-5" d="M228.28,129.73h0a6.07,6.07,0,0,0,6.33,7.9c10.83-1,29.13-1.75,43.49,2.56,0,0-13.94-18-40.32-17.52A10.18,10.18,0,0,0,228.28,129.73Z"/><path class="cls-9" d="M123.8,116.14s11.14-23.75,66.08-28.88"/><path class="cls-9" d="M294,116.14C263.58,102.28,282.89,92.39,228,87.26"/><path class="cls-4" d="M187.78,256c4.8.43,8.73.77,12.49,1s7.16.29,10.64.2c.87.05,1.75-.1,2.62-.1h1.33c.44,0,.88-.11,1.33-.13.89-.06,1.8-.09,2.73-.11s1.84-.19,2.8-.25c.48,0,1,0,1.47,0s1-.13,1.46-.17c1-.09,2-.15,3.09-.18a48,48,0,0,1,6.82-.21l.39.63c-1.82,1.06-3.61,2.2-5.49,3.19L226.55,261l-1.45.64c-.5.18-1,.33-1.52.49l-3,1c-1,.27-2.08.45-3.12.67l-1.57.32-1.59.16c-1.07.08-2.13.26-3.19.25a38.82,38.82,0,0,1-12.61-1.94,40.4,40.4,0,0,1-5.88-2.47,33.05,33.05,0,0,1-5.29-3.59Z"/><path class="cls-10" d="M156.52,235.81c15.69-22.5,45.95-31.55,73.1-27.66,14,2,28.36,7.61,36.37,19.24"/><path class="cls-3" d="M166.76,63.54s16.82-13.18,0-33.18S125.4,28.09,114.49,49.9,85.86,69.45,77.22,63.54C77.22,63.54,116.31,115.81,166.76,63.54Z"/><path class="cls-3" d="M307.14,83.74l2.37,61.37v29.38l-12.75,12.2s17.12-78.23-9.17-106.8S307.14,83.74,307.14,83.74Z"/><path class="cls-3" d="M106.42,83.74,104,145.11v29.38l12.76,12.2S99.68,108.46,126,79.89,106.42,83.74,106.42,83.74Z"/><path class="cls-1" d="M104,295.43s15.42,34.82,103.57,34.82,101.9-34.82,101.9-34.82v88.91H104Z"/><path class="cls-4" d="M104,310.26s15.42,34.82,103.57,34.82,101.9-34.82,101.9-34.82v88.9H104Z"/><polygon class="cls-4" points="309.51 310.26 413.56 399.17 291.31 399.17 309.51 310.26"/><polygon class="cls-4" points="104.04 310.26 0 399.17 122.25 399.17 104.04 310.26"/></symbol></defs><g id="Layer_2" data-name="Layer 2"><g id="Layer_3" data-name="Layer 3"><use width="413.56" height="399.16" xlink:href="#New_Symbol"/></g></g></svg>