<svg xmlns="http://www.w3.org/2000/svg" viewBox="0 0 681.06 496.19"><defs><style>.cls-1{fill:#bfc193;}.cls-2{fill:#8f916e;}.cls-3{fill:#5b606a;}.cls-4{fill:#7f7f6b;}.cls-5{fill:#fff;}.cls-10,.cls-6,.cls-9{fill:none;}.cls-7{fill:#0d141c;}.cls-8{fill:#0d2033;}.cls-9{stroke:#7f7f6b;stroke-width:18.52px;}.cls-10,.cls-9{stroke-miterlimit:10;}.cls-10{stroke:#0d2033;stroke-linecap:round;stroke-width:7.41px;}</style></defs><g id="Layer_2" data-name="Layer 2"><g id="Layer_3" data-name="Layer 3"><path class="cls-1" d="M441.93,242.13s.25-8,15.07-8-7.54,28.55-7.54,41.36-13.21,18.47-13.21,5.14S441.93,242.13,441.93,242.13Z"/><path class="cls-1" d="M236.46,242.13s-.25-8-15.06-8,7.53,29.83,7.53,41.36,13.21,18.47,13.21,5.14S236.46,242.13,236.46,242.13Z"/><path class="cls-2" d="M339.2,142.13c-56.74,0-102.74,36.58-102.74,100V489.54H441.93V242.13C441.93,178.71,395.94,142.13,339.2,142.13Z"/><path class="cls-3" d="M311.76,153.61c-3.76-3.85-17.81-17.15-.75-36s56-33.89,92-2.29,63,36.72,73.75,20.47c0,0-21.76,72.55-71.12,35S331.38,173.69,311.76,153.61Z"/><path class="cls-4" d="M319.74,226.75a24.48,24.48,0,0,0-1.06-12.11,8.15,8.15,0,0,0-8.29-5.27c-7.73.6-22.91,3.82-40.46,18.34,0,0-21.36,21.14,0,9.51S319.74,226.75,319.74,226.75Z"/><path class="cls-4" d="M319.74,226.75s3.82,13.26-21.18,14.91-28.63-4.44-28.63-4.44A217.44,217.44,0,0,1,319.74,226.75Z"/><path class="cls-5" d="M319.74,226.75h0a6.05,6.05,0,0,1-6.32,7.9c-10.83-1-29.13-1.74-43.49,2.57,0,0,13.93-18,40.32-17.53A10.19,10.19,0,0,1,319.74,226.75Z"/><path class="cls-4" d="M360.7,226.75a24.48,24.48,0,0,1,1.06-12.11,8.15,8.15,0,0,1,8.3-5.27c7.72.6,22.9,3.82,40.46,18.34,0,0,21.36,21.14,0,9.51S360.7,226.75,360.7,226.75Z"/><path class="cls-1" d="M353.1,262a9.68,9.68,0,0,1,7.37-.38c-2-18.9-8-54.53-17.14-54.53-8.91,0-18.13,34-21.67,53.22a8.09,8.09,0,0,1,9.09.76c-8.46-.34-10.59,10.62-10.59,10.62,0,9.54,9.19,17.27,20.52,17.27s20.52-7.73,20.52-17.27C361.2,271.68,360.51,263.76,353.1,262Z"/><path class="cls-6" d="M335.6,198.57l-.17.32Z"/><path class="cls-6" d="M328.71,215.5a.91.91,0,0,0,.41-.34,5.66,5.66,0,0,1-1.71.82Z"/><path class="cls-6" d="M330,213.45l-.83,1.63Z"/><path class="cls-6" d="M333.83,206l-.68,1.32Z"/><path class="cls-6" d="M336.51,196.76l-.45.9Q336.29,197.2,336.51,196.76Z"/><path class="cls-6" d="M339,191.82l-.77,1.52Z"/><path class="cls-6" d="M335,203.75l-.26.51Z"/><path class="cls-6" d="M338.09,193.65l-.4.77Z"/><path class="cls-6" d="M341.09,187.77s.54-1.1,1.05-2.37Z"/><polygon class="cls-6" points="352.6 210.54 352.6 210.54 355.88 210.19 352.6 210.54 352.6 210.54"/><polygon class="cls-6" points="353.88 213.07 353.71 211.46 353.88 213.07 353.88 213.07"/><polygon class="cls-6" points="329.51 216.48 338.76 198.68 329.51 216.48 329.51 216.48"/><path class="cls-6" d="M336.43,200.85l-.56,1.09Z"/><path class="cls-6" d="M338.3,197.16l-1,1.91Z"/><path class="cls-6" d="M338.76,198.68l-.55,6.1a2.6,2.6,0,0,0-2.56,1.75c0,1.92,2.49,2.3,2.49,2.3l-.09,1h0l-.22,3.07,6.39-.29-.25-2.83h0l-.1-1s2.5-.42,2.44-2.34a2.59,2.59,0,0,0-2.58-1.71l-1-12.94-.28-2.59c-1.07,2.16-2.33,4.46-3.4,6.56Z"/><path class="cls-6" d="M339,195.76l-.41.81Z"/><path class="cls-6" d="M331.48,210.56l-1,1.92Z"/><polygon class="cls-6" points="328.67 216.94 325.59 216.67 328.67 216.94 328.67 216.94"/><path class="cls-6" d="M340.08,179.94a2.84,2.84,0,0,0-3,2.56,3.18,3.18,0,0,0,2.48,3.23c2.2.5,2.58-.33,2.58-.33a12.13,12.13,0,0,0,.84-2.86C343.13,180.83,341.24,180,340.08,179.94Z"/><path class="cls-6" d="M329.44,210.75l.74-1.48Z"/><path class="cls-6" d="M335.11,199.52,332.36,205C333.26,203.2,334.21,201.31,335.11,199.52Z"/><path class="cls-6" d="M339,191.82l2.08-4a8.29,8.29,0,0,1-1.9-.49l.1,1.38Z"/><path class="cls-6" d="M330.76,208.12l-.45.91Z"/><path class="cls-6" d="M331.81,206.06l-.76,1.5Z"/><polygon class="cls-5" points="337.83 212.87 337.66 215.3 337.66 215.3 344.44 215.11 344.22 212.58 337.83 212.87"/><path class="cls-7" d="M329.51,216.48l9.25-17.8.26-2.92-.41.81-.31.59-1,1.91-.9,1.78-.56,1.09-.92,1.81-.26.51-.86,1.69-.68,1.32-1.67,3.29-1,1.92-.5,1-.83,1.63s0,0-.05.08a.91.91,0,0,1-.41.34l-1.3.48h0l-1.82.69,3.08.27A.84.84,0,0,0,329.51,216.48Z"/><path class="cls-7" d="M338.14,208.83s-2.51-.38-2.49-2.3a3.26,3.26,0,0,0-.11.59c-.22,2.44,2.51,2.68,2.51,2.68h0Z"/><path class="cls-7" d="M343.87,208.78l.1,1h0s2.73-.29,2.47-2.73a3.1,3.1,0,0,0-.13-.58C346.37,208.36,343.87,208.78,343.87,208.78Z"/><path class="cls-7" d="M339.18,174.21l1.28,1.52s.42-9.42-.16-21.45c-.5-10.56-1.68-28.42-2-32.64a1.06,1.06,0,0,0-1-1l-1.65-.15,2.62,54Z"/><path class="cls-7" d="M338.34,174.54l0,1s-3.1,1.07-3.56,6.19,2.88,6.89,4.47,6.92l-.1-1.38a4.77,4.77,0,0,1-3.43-5.09c.2-2.24.92-3.43,1.81-4.05a12.41,12.41,0,0,1,2.89-2.41l-1.28-1.52Z"/><path class="cls-7" d="M335.28,244.08l.27-3c-2.52-1.23-4.67-6.72-4.67-6.72C330.25,241.29,335.28,244.08,335.28,244.08Z"/><path class="cls-8" d="M338.05,209.8h0s-2.73-.24-2.51-2.68a3.26,3.26,0,0,1,.11-.59,2.6,2.6,0,0,1,2.56-1.75l.55-6.1-9.25,17.8h0a.84.84,0,0,1-.84.46h0l-3.08-.27-4.33,48,3.9.35,8.95-7.91.75-8.35.42-4.7s-5-2.79-4.4-9.73,6-8.06,6-8.06l.77-11,.17-2.43Z"/><path class="cls-8" d="M330.31,209l.45-.91c.1-.18.19-.37.29-.56l.76-1.5.55-1.09,2.75-5.45.32-.63.17-.32.46-.91.45-.9,1.18-2.34.4-.77.15-.31.77-1.52.28-3.16c-1.59,0-4.94-1.8-4.47-6.92s3.56-6.19,3.56-6.19l0-1-2.62-54-2.11-.19a.56.56,0,0,0-.61.52l-6.85,89.62,3.29.3.74-1.48Z"/><path class="cls-7" d="M343.07,174.5l1.68-54.08-1.65.18a1.06,1.06,0,0,0-1,1c-.21,4.22-1.07,22.09-1.39,32.66-.37,12,.21,21.46.21,21.46l1.25-1.55Z"/><path class="cls-7" d="M342.72,188.59c1.69-.29,4.51-2.2,4-7-.55-5.11-3.68-6.12-3.68-6.12l0-1-.85-.32L341,175.73a10.73,10.73,0,0,1,3.47,3.1,5.37,5.37,0,0,1,.46,2.71c0,.14,0,.28,0,.43C345,183.52,344,185.93,342.72,188.59Z"/><path class="cls-7" d="M351.57,234.16C350.49,239.37,347,241,347,241l.33,3S352.32,241.1,351.57,234.16Z"/><path class="cls-8" d="M356.55,216.4l-3.07.33-.88-6.19h0l3.29-.35-8.41-89.49a.56.56,0,0,0-.62-.5l-2.11.22-1.68,54.08,0,1s3.13,1,3.68,6.12c.51,4.76-2.31,6.67-4,7-.09.2-.19.4-.3.61l.28,2.59,1,12.94a2.59,2.59,0,0,1,2.58,1.71,3.1,3.1,0,0,1,.13.58c.26,2.44-2.47,2.73-2.47,2.73h0l.25,2.83.23,2.53,1,11.1s5.41,1,6.15,7.95-4.23,9.82-4.23,9.82l.5,4.68.9,8.34,9.08,7.76,3.89-.42Z"/><path class="cls-7" d="M352.6,210.54l.88,6.19,3.07-.33-1.35-.84-.11,0-.39,0a1.37,1.37,0,0,1-.82-2.55l-.17-1.61,2.18-1.27-3.29.35Z"/><path class="cls-5" d="M354.5,213.75l-.53.16-.09-.84h0a1.37,1.37,0,0,0,.82,2.55Z"/><path class="cls-5" d="M355.66,213.07l.29.24A1,1,0,0,0,355.66,213.07Z"/><path class="cls-5" d="M354.5,213.75l.2,1.87.39,0,.11,0a1.36,1.36,0,0,0,1.1-1.48,1.32,1.32,0,0,0-.33-.76Z"/><polygon class="cls-5" points="353.97 213.91 354.5 213.75 355.97 213.32 355.97 213.32 355.95 213.31 355.66 213.07 353.71 211.46 353.88 213.07 353.97 213.91"/><path class="cls-5" d="M327.41,216a5.66,5.66,0,0,0,1.71-.82c.06-.06.05-.08.05-.08l.83-1.63.5-1,1-1.92,1.67-3.29.68-1.32.86-1.69.26-.51.92-1.81.56-1.09.9-1.78,1-1.91.31-.59.41-.81c1.07-2.1,2.33-4.4,3.4-6.56.11-.21.21-.41.3-.61,1.3-2.66,2.27-5.07,2.21-6.62,0-.15,0-.29,0-.43a4.21,4.21,0,0,0-3.87-4,5.11,5.11,0,0,0-3.46.57c-.89.62-1.61,1.81-1.81,4.05a4.77,4.77,0,0,0,3.43,5.09,8.29,8.29,0,0,0,1.9.49l1.05-2.37c-.51,1.27-1.05,2.37-1.05,2.37l-2.08,4-.77,1.52-.15.31-.4.77-1.18,2.34q-.22.44-.45.9l-.46.91-.17.32-.32.63c-.9,1.79-1.85,3.68-2.75,5.45l-.55,1.09-.76,1.5c-.1.19-.19.38-.29.56l-.45.91-.13.24-.74,1.48c-2.49,4.92-2,5.23-2,5.23Zm12.15-30.25a3.18,3.18,0,0,1-2.48-3.23,2.84,2.84,0,0,1,3-2.56c1.16.1,3.05.89,2.9,2.6a12.13,12.13,0,0,1-.84,2.86S341.76,186.23,339.56,185.73Z"/><path class="cls-8" d="M328.65,282.25s-2.27-.67-1.74-3.87,3.47-3.47,5.47-2,3.47,3.2.93,4.13S328.91,280.65,328.65,282.25Z"/><path class="cls-8" d="M347.08,283.71s-1.5-3.65,1.43-4.83,4.94.67,4.54,2.42C352.38,283.71,347.77,282.51,347.08,283.71Z"/><path class="cls-4" d="M360.7,226.75s-3.82,13.26,21.18,14.91,28.64-4.44,28.64-4.44A217.45,217.45,0,0,0,360.7,226.75Z"/><path class="cls-5" d="M360.7,226.75h0a6.05,6.05,0,0,0,6.32,7.9c10.84-1,29.14-1.74,43.5,2.57,0,0-13.94-18-40.32-17.53A10.2,10.2,0,0,0,360.7,226.75Z"/><path class="cls-8" d="M373.72,219.76c-1.15-.06-2.32-.09-3.52-.07a10.2,10.2,0,0,0-9.5,7.06,6.06,6.06,0,0,0,6.32,7.9c2.77-.25,6-.49,9.59-.64a10.31,10.31,0,0,0-2.89-14.25Z"/><circle class="cls-7" cx="367.17" cy="227.6" r="4.78"/><path class="cls-8" d="M288.57,223.83a49.57,49.57,0,0,0-18.64,13.39,83.68,83.68,0,0,1,18.13-3,12,12,0,0,0,1.45-5.71A11.76,11.76,0,0,0,288.57,223.83Z"/><path class="cls-9" d="M256.22,213.17s11.14-23.76,66.07-28.88"/><path class="cls-9" d="M426.45,213.17c-30.45-13.87-11.14-23.76-66.08-28.88"/><path class="cls-4" d="M320.19,353c4.81.44,8.74.78,12.49,1s7.17.29,10.65.2c.87.05,1.74-.1,2.62-.1h1.32c.44-.05.89-.11,1.33-.12.9-.06,1.81-.09,2.73-.12s1.85-.19,2.81-.24c.47-.05,1,0,1.46-.06s1-.13,1.47-.16c1-.1,2-.15,3.09-.19A48,48,0,0,1,367,353l.39.63c-1.83,1.05-3.62,2.19-5.49,3.18L359,358.05l-1.46.64-1.51.49-3,1c-1,.26-2.08.44-3.13.67l-1.56.32-1.6.15c-1.06.08-2.12.26-3.19.26A39.3,39.3,0,0,1,325,357.13a32.41,32.41,0,0,1-5.29-3.59Z"/><path class="cls-10" d="M288.94,332.84c15.68-22.51,45.95-31.55,73.1-27.67,14,2,28.36,7.62,36.37,19.24"/><path class="cls-7" d="M282.37,227a52.13,52.13,0,0,0-7.66,5.47,4.76,4.76,0,0,0,2,1.62,4.67,4.67,0,0,0,1.91.41,4.71,4.71,0,0,0,4.71-4.71A4.65,4.65,0,0,0,282.37,227Z"/><path class="cls-3" d="M299.18,160.56s16.82-13.18,0-33.18-41.36-2.27-52.27,19.55-28.64,19.54-37.27,13.63C209.64,160.56,248.73,212.84,299.18,160.56Z"/><path class="cls-3" d="M439.55,180.76l2.38,61.37v29.39l-12.76,12.19s17.13-78.22-9.16-106.8S439.55,180.76,439.55,180.76Z"/><path class="cls-3" d="M238.84,180.76l-2.38,61.37v29.39l12.76,12.19s-17.13-78.22,9.16-106.8S238.84,180.76,238.84,180.76Z"/><path class="cls-1" d="M236.46,392.45S251.88,427.28,340,427.28s101.9-34.83,101.9-34.83v88.91H236.46Z"/><path class="cls-4" d="M236.46,407.28S251.88,442.1,340,442.1s101.9-34.82,101.9-34.82v88.91H236.46Z"/><polygon class="cls-4" points="441.93 407.28 545.98 496.19 423.73 496.19 441.93 407.28"/><polygon class="cls-4" points="236.46 407.28 132.42 496.19 254.66 496.19 236.46 407.28"/><path class="cls-4" d="M116.39,363h-1a17.38,17.38,0,0,0,2.27-8.6h0A17.41,17.41,0,0,0,100.9,337,17.41,17.41,0,0,0,85,312.53H76.67c7.19-20.4-9.77-24.85-9.77-24.85,3.72,1.82,5.37,9.54-7.19,13.49-9.59,3-21,10.78-25.92,19.95A17.4,17.4,0,0,0,32.9,337a17.41,17.41,0,0,0-16.72,17.4h0a17.28,17.28,0,0,0,2.28,8.6H17.41A17.41,17.41,0,0,0,0,380.44H0a17.4,17.4,0,0,0,17.41,17.41h99a17.41,17.41,0,0,0,17.41-17.41h0A17.42,17.42,0,0,0,116.39,363Z"/><path class="cls-3" d="M45.91,342.77c-9.55,0-13-5.74-13-5.74a17.39,17.39,0,0,0-6,1.33C35.24,349.21,45.91,342.77,45.91,342.77Z"/><path class="cls-3" d="M33,371.31C21.82,368.58,18.46,363,18.46,363H17.41a17.59,17.59,0,0,0-6,1.05C20.1,376.23,33,371.31,33,371.31Z"/><path class="cls-4" d="M658.77,77.17C644.19,78.11,642.69,83,631,83s-32.15-15.45-53.44-5.85c0,0,.2-6,15.65-14.19s15.87-37.37.21-49.9S556.89-6.76,538.3,8.9s-1.87,35.91-1.87,35.91,4-22.54,20.66-14.19S550.62,55.25,545,74c-5.36,17.87.41,28.18,7.63,35.43a4.27,4.27,0,0,1,1.22,2.76l1,21a5.33,5.33,0,0,0,2,3.93l8.54,6.74a5.37,5.37,0,0,0,3.31,1.15h12.93a1.13,1.13,0,0,0,1-1.68l-1.31-2.41a1.13,1.13,0,0,0-.84-.58L570.67,139h0a4.22,4.22,0,0,1,.35-6.44c2.65-2,5.9-4.76,7.58-7.34,0,0,6.26,1.88,19.83,1.88s21.09-2.92,21.09-2.92L633,142.65a1.74,1.74,0,0,0,1.39.71h12.39a1.72,1.72,0,0,0,1.37-2.76h0a1.67,1.67,0,0,0-1.1-.66,8.77,8.77,0,0,1-7.69-8.27c-.62-7.94.21-14.83,6.89-22.76s11.9-12.53,16.08-12.53c3.86,0,9.14,2.32,18.47-8a1,1,0,0,0-.92-1.68,10.2,10.2,0,0,1-7.32-1.36C667.12,82,664.72,76.79,658.77,77.17Z"/><circle class="cls-3" cx="666.29" cy="87.61" r="3.34"/><path class="cls-1" d="M657.35,84.35a4.88,4.88,0,0,1-.24.49c-.15.29-.35.7-.59,1.12s-.45.89-.61,1.31a4.45,4.45,0,0,0-.16.55,1.55,1.55,0,0,0,0,.41,1.45,1.45,0,0,0,0,.4,3.28,3.28,0,0,0,.16.56c.07.2.19.42.29.64s.22.45.34.67c.24.42.44.83.59,1.13a5.38,5.38,0,0,1,.23.5l-.1.16-.4-.24a4.36,4.36,0,0,1-.45-.28,5.06,5.06,0,0,1-.57-.4,5.82,5.82,0,0,1-.62-.54,4.66,4.66,0,0,1-.62-.69,3.53,3.53,0,0,1-.5-.87,2.84,2.84,0,0,1-.21-1,3.29,3.29,0,0,1,.7-1.91,6.28,6.28,0,0,1,1.23-1.24,7.76,7.76,0,0,1,1-.67c.26-.15.42-.22.42-.22Z"/><path class="cls-1" d="M660.86,81.56s-4.18-2.09-12.32,0S630.79,90.12,609.92,83s-31.32-2.39-31.32-2.39,20.67-3,34.87,11.58c0,0-11.7,8.14-37.17,6.05s-19.83-17.54-12.94-24.84,20-28.19,17.74-38.63-15.45-11.27-15.45-19.21,13.78-2.92,13.78-2.92-5.8-8.35-21.9-5.64S542.69,19.13,554,21.64s23,15.67,12.53,30.9-23.17,27.2-14.2,46.06S589.46,116.22,600.1,115s35.08-14,40.72-21.5S652.3,82.81,660.86,81.56Z"/></g></g></svg>