<svg xmlns="http://www.w3.org/2000/svg" viewBox="0 0 133.8 110.17"><defs><style>.cls-1{fill:#7f7f6b;}.cls-2{fill:#5b606a;}</style></defs><g id="Layer_2" data-name="Layer 2"><g id="Layer_3" data-name="Layer 3"><path class="cls-1" d="M116.39,75.36h-1a17.41,17.41,0,0,0,2.27-8.61h0A17.4,17.4,0,0,0,100.9,49.36,17.41,17.41,0,0,0,85,24.86H76.67C83.86,4.45,66.9,0,66.9,0c3.72,1.82,5.37,9.55-7.19,13.49-9.59,3-21,10.78-25.92,19.95a17.42,17.42,0,0,0-.89,15.92A17.4,17.4,0,0,0,16.18,66.75h0a17.32,17.32,0,0,0,2.28,8.61H17.41A17.4,17.4,0,0,0,0,92.77H0a17.4,17.4,0,0,0,17.41,17.4h99a17.41,17.41,0,0,0,17.41-17.4h0A17.41,17.41,0,0,0,116.39,75.36Z"/><path class="cls-2" d="M45.91,55.09c-9.55,0-13-5.73-13-5.73a17.38,17.38,0,0,0-6,1.32C35.24,61.53,45.91,55.09,45.91,55.09Z"/><path class="cls-2" d="M33,83.63c-11.13-2.72-14.49-8.27-14.49-8.27H17.41a17.35,17.35,0,0,0-6,1C20.1,88.55,33,83.63,33,83.63Z"/></g></g></svg>