<svg xmlns="http://www.w3.org/2000/svg" viewBox="0 0 743.04 409.39"><defs><style>.cls-1,.cls-8{font-size:19.69px;fill:#0a7c73;font-family:DINOT;}.cls-1{letter-spacing:-0.04em;}.cls-2{letter-spacing:1.46em;}.cls-3{letter-spacing:-0.04em;}.cls-4{letter-spacing:-0.16em;}.cls-5{letter-spacing:1.5em;}.cls-6{letter-spacing:-0.21em;}.cls-7{letter-spacing:-0.21em;}.cls-8{letter-spacing:-0.04em;}.cls-10,.cls-11,.cls-12,.cls-9{fill:none;stroke-miterlimit:10;}.cls-9{stroke:#878787;}.cls-10{stroke:#416bb3;}.cls-10,.cls-11,.cls-12{stroke-width:4px;}.cls-11{stroke:#bb2e26;}.cls-12{stroke:#9d4c9d;}</style></defs><g id="Layer_2" data-name="Layer 2"><g id="Layer_3" data-name="Layer 3"><text class="cls-1" transform="translate(28.35 404.47)">3/10<tspan class="cls-2" x="33.67" y="0">	</tspan><tspan class="cls-3" x="66.65" y="0">3/13</tspan><tspan class="cls-4" x="100.32" y="0">	</tspan><tspan class="cls-5" x="101.25" y="0">	</tspan><tspan x="135" y="0">3/14</tspan><tspan class="cls-6" x="168.67" y="0">	</tspan><tspan class="cls-3" x="168.75" y="0">3/15</tspan><tspan class="cls-6" x="202.42" y="0">	</tspan><tspan class="cls-3" x="202.5" y="0">3/16</tspan><tspan class="cls-6" x="236.17" y="0">	</tspan><tspan class="cls-3" x="236.25" y="0">3/17</tspan><tspan class="cls-7" x="269.92" y="0">	</tspan><tspan x="270" y="0">3/20</tspan><tspan class="cls-6" x="303.67" y="0">	</tspan><tspan x="303.75" y="0">3/21</tspan><tspan class="cls-6" x="337.42" y="0">	</tspan><tspan x="337.5" y="0">3/22</tspan><tspan class="cls-6" x="371.17" y="0">	</tspan><tspan x="371.25" y="0">3/23</tspan><tspan class="cls-6" x="404.92" y="0">	</tspan><tspan x="405.01" y="0">3/24</tspan></text><text class="cls-8" transform="translate(0 16.48)">13<tspan x="0" y="30">12</tspan><tspan x="0" y="60">11</tspan><tspan x="0" y="90">10</tspan><tspan x="9.27" y="120">9</tspan><tspan x="9.27" y="150">8</tspan><tspan x="9.27" y="180">7</tspan><tspan x="9.27" y="210">6</tspan><tspan x="9.27" y="240">5</tspan><tspan x="9.27" y="270">4</tspan><tspan x="9.27" y="300">3</tspan><tspan x="9.27" y="330">2</tspan><tspan x="9.27" y="360">1</tspan></text><line class="cls-9" x1="25.35" y1="368.86" x2="743.04" y2="368.86"/><line class="cls-9" x1="25.35" y1="338.86" x2="743.04" y2="338.86"/><line class="cls-9" x1="25.35" y1="308.86" x2="743.04" y2="308.86"/><line class="cls-9" x1="25.35" y1="278.86" x2="743.04" y2="278.86"/><line class="cls-9" x1="25.35" y1="248.86" x2="743.04" y2="248.86"/><line class="cls-9" x1="25.35" y1="218.86" x2="743.04" y2="218.86"/><line class="cls-9" x1="25.35" y1="188.86" x2="743.04" y2="188.86"/><line class="cls-9" x1="25.35" y1="158.86" x2="743.04" y2="158.86"/><line class="cls-9" x1="25.35" y1="128.86" x2="743.04" y2="128.86"/><line class="cls-9" x1="25.35" y1="98.86" x2="743.04" y2="98.86"/><line class="cls-9" x1="25.35" y1="68.86" x2="743.04" y2="68.86"/><line class="cls-9" x1="25.35" y1="38.86" x2="743.04" y2="38.86"/><line class="cls-9" x1="25.35" y1="8.86" x2="743.04" y2="8.86"/><polyline class="cls-10" points="50.61 160.48 107.62 342.86 179.62 279.86 243.62 342.86 310.62 308.86 384.62 342.86 448.62 309.86 512.62 368.86 579.2 339.03 650.22 339.03 717.78 368.86"/><polyline class="cls-11" points="50.61 71.01 107.62 10.21 179.62 160.37 243.62 40.23 310.62 70.28 384.62 9.2 448.62 130.33 512.62 161.31 579.2 190.52 650.22 99.44 717.78 131.28"/><polyline class="cls-12" points="50.61 314.14 107.62 292.36 179.62 269.39 243.62 295.36 310.62 317.41 384.62 325.39 448.62 279.38 512.62 247.3 579.2 279.52 650.22 263.5 717.78 280.33"/></g></g></svg>