<svg xmlns="http://www.w3.org/2000/svg" viewBox="0 0 151.53 145.03"><defs><style>.cls-1{fill:#7f7f6b;}.cls-2{fill:#5b606a;}.cls-3{fill:#bfc193;}</style></defs><g id="Layer_2" data-name="Layer 2"><g id="Layer_3" data-name="Layer 3"><path class="cls-1" d="M129.24,77.17c-14.58.94-16.07,5.85-27.77,5.85S69.32,67.57,48,77.17c0,0,.2-6,15.65-14.19s15.87-37.37.21-49.9S27.36-6.76,8.78,8.9,6.9,44.81,6.9,44.81s4-22.54,20.67-14.19S21.09,55.25,15.46,74c-5.36,17.87.41,28.18,7.63,35.43a4.22,4.22,0,0,1,1.22,2.76l1.05,21a5.33,5.33,0,0,0,2,3.93l8.54,6.74A5.37,5.37,0,0,0,39.24,145H52.16a1.13,1.13,0,0,0,1-1.68l-1.31-2.41a1.11,1.11,0,0,0-.84-.58L41.14,139h0a4.22,4.22,0,0,1,.36-6.44c2.64-2,5.89-4.76,7.57-7.34,0,0,6.26,1.88,19.83,1.88S90,124.15,90,124.15l13.47,18.5a1.76,1.76,0,0,0,1.4.71h12.38a1.72,1.72,0,0,0,1.37-2.76h0a1.67,1.67,0,0,0-1.1-.66,8.76,8.76,0,0,1-7.68-8.27c-.63-7.94.2-14.83,6.88-22.76s11.91-12.53,16.08-12.53c3.86,0,9.14,2.32,18.47-8a1,1,0,0,0-.92-1.68A10.2,10.2,0,0,1,143,85.32C137.59,82,135.19,76.79,129.24,77.17Z"/><circle class="cls-2" cx="136.76" cy="87.61" r="3.34"/><path class="cls-3" d="M127.82,84.35a4.88,4.88,0,0,1-.24.49c-.15.29-.35.7-.58,1.12a14,14,0,0,0-.62,1.31,4.45,4.45,0,0,0-.16.55,1.55,1.55,0,0,0,0,.41,1.45,1.45,0,0,0,0,.4,3.28,3.28,0,0,0,.16.56c.08.2.19.42.29.64s.22.45.34.67c.24.42.44.83.59,1.13a5.38,5.38,0,0,1,.23.5l-.1.16-.4-.24c-.12-.07-.28-.16-.45-.28a5.06,5.06,0,0,1-.57-.4,5.82,5.82,0,0,1-.62-.54,4.66,4.66,0,0,1-.62-.69,3.53,3.53,0,0,1-.5-.87,2.84,2.84,0,0,1-.21-1,3.29,3.29,0,0,1,.7-1.91,6.57,6.57,0,0,1,1.23-1.24,7.76,7.76,0,0,1,1-.67c.26-.15.42-.22.42-.22Z"/><path class="cls-3" d="M131.33,81.56s-4.18-2.09-12.32,0S101.27,90.12,80.39,83s-31.32-2.39-31.32-2.39,20.67-3,34.87,11.58c0,0-11.7,8.14-37.17,6.05S26.94,80.72,33.83,73.42s20-28.19,17.75-38.63S36.13,23.52,36.13,15.58s13.78-2.92,13.78-2.92S44.1,4.31,28,7,13.16,19.13,24.43,21.64,47.4,37.31,37,52.54,13.79,79.74,22.76,98.6,59.93,116.22,70.57,115s35.08-14,40.72-21.5S122.77,82.81,131.33,81.56Z"/></g></g></svg>