<?xml version="1.0" encoding="utf-8"?>
<!-- Generator: Adobe Illustrator 25.0.0, SVG Export Plug-In . SVG Version: 6.00 Build 0)  -->
<svg version="1.1" id="Layer_1" xmlns="http://www.w3.org/2000/svg" xmlns:xlink="http://www.w3.org/1999/xlink" x="0px" y="0px"
	 viewBox="0 0 413.6 399.2" style="enable-background:new 0 0 413.6 399.2;" xml:space="preserve">
<style type="text/css">
	.st0{fill:#0D2033;}
	.st1{fill:#BFC193;}
	.st2{fill:#8F916E;}
	.st3{fill:#5B606A;}
	.st4{fill:#7F7F6B;}
	.st5{fill:#FFFFFF;}
	.st6{fill:none;}
	.st7{fill:#0D141C;}
	.st8{fill:none;stroke:#7F7F6B;stroke-width:18.52;stroke-miterlimit:10;}
	.st9{fill:none;stroke:#0D2033;stroke-width:7.41;stroke-linecap:round;stroke-miterlimit:10;}
</style>
<path class="st0" d="M142.6,138.7"/>
<g id="Layer_2_1_">
	<g id="Layer_3">
		<path class="st1" d="M309.5,145.1c0,0,0.2-8,15.1-8s-7.5,28.6-7.5,41.4s-13.2,18.5-13.2,5.1S309.5,145.1,309.5,145.1z"/>
		<path class="st1" d="M104,145.1c0,0-0.2-8-15.1-8s7.6,29.9,7.6,41.4s13.2,18.5,13.2,5.1S104,145.1,104,145.1z"/>
		<path class="st2" d="M309.1,135.5v-0.2c-1.5-19.8-7.8-36.7-17.6-50.3l-0.1-0.1c-0.5-0.7-0.9-1.3-1.4-1.9c-0.8-1-1.6-2-2.4-3l0,0
			c-1.2-1.4-2.3-2.7-3.6-4l0,0c-16.7-17.7-40.3-28.2-66.9-30.3c-1.8-0.1-3.6-0.3-5.5-0.3c-1,0-1.9-0.1-2.9-0.1c-0.5,0-1,0-1.6,0
			h-0.4c-0.8,0-1.6,0-2.4,0h-0.1c-1.8,0-3.6,0.1-5.3,0.2c-8.6,0.5-16.9,1.9-24.8,4.1c-0.2,0.1-0.4,0.1-0.6,0.2
			c-16.9,4.8-31.8,13.5-43.5,25.6c0,0,0,0,0,0.1c-1.7,1.8-3.4,3.7-5,5.6c-0.2,0.3-0.5,0.6-0.7,0.9c-0.3,0.4-0.6,0.7-0.9,1.1
			c-0.2,0.2-0.4,0.5-0.6,0.8c-0.8,1-1.5,2.1-2.2,3.1c-9.1,13.3-14.9,29.6-16.4,48.5v0.1c-0.2,3.2-0.4,6.4-0.4,9.7v247.4h205.5V145.1
			C309.5,141.8,309.4,138.6,309.1,135.5z M183.4,137.4c-0.8,0.2-1.6,0.3-2.4,0.3c-6.6-0.6-15.8-1.1-25.3-0.5
			c-1.5,0.1-3.1,0.2-4.6,0.4l0,0c-0.6,0.1-1.2,0.1-1.7,0.2c-0.5,0.1-1,0.1-1.5,0.2c-3.5,0.5-7,1.2-10.3,2.2l0,0l0.1-0.1
			c1.6-1.8,3.3-3.5,5-5c0.3-0.2,0.5-0.5,0.8-0.7c0.1,0,0.1-0.1,0.2-0.1c0.2-0.1,0.3-0.3,0.5-0.4c0.2-0.1,0.3-0.3,0.5-0.4
			c2.3-1.7,5.1-3.6,8.4-5.2c0.1-0.1,0.3-0.1,0.4-0.2c0.4-0.2,0.9-0.4,1.3-0.6c6.1-2.8,13.8-4.9,23-4.7c4.3,0.1,8.2,2.9,9.5,7.1l0,0
			v0.1v0.1c0.1,0.5,0.3,1.7,0,3.1l0,0C186.9,135.1,185.4,136.7,183.4,137.4z M243.1,137c-0.4,0-0.7,0-1,0c-0.6,0-1.2,0.1-1.7,0.1
			c-0.1,0-0.2,0-0.3,0c-0.3,0-0.6,0-0.8,0c-0.8,0.1-1.7,0.1-2.4,0.2c-0.8,0.1-1.5,0.1-2.2,0.2c-0.8,0.1-1.6,0-2.4-0.3
			c-2-0.7-3.5-2.3-4-4.2l0,0c-0.3-1.8,0-3.1,0.1-3.3l0,0c1.3-4.1,5.1-7,9.5-7.1h0.4c25.7-0.3,39.5,17,39.9,17.5l0,0
			C267,136.9,253.6,136.6,243.1,137z"/>
		<path class="st3" d="M179.3,56.6c-3.8-3.8-17.8-17.1-0.8-36s56-33.9,92-2.3s63,36.7,73.8,20.5c0,0-21.8,72.6-71.1,35
			S199,76.7,179.3,56.6z"/>
		<path class="st4" d="M187.3,129.7c-1.3-4.1-5.2-7-9.5-7.1c-9.2-0.2-16.9,1.9-23,4.7c-0.5,0.2-0.9,0.4-1.3,0.6
			c-0.2,0.1-0.3,0.1-0.4,0.2c-3.3,1.7-6.1,3.5-8.4,5.2c-0.2,0.1-0.3,0.3-0.5,0.4c-0.2,0.1-0.3,0.3-0.5,0.4c0,0-0.1,0.1-0.2,0.1
			c-0.3,0.2-0.5,0.5-0.8,0.7c-1.8,1.5-3.5,3.2-5,5c0,0,0,0.1-0.1,0.1l0,0c-21.4,11.6,0-9.5,0-9.5c17.6-14.5,32.7-17.7,40.5-18.3
			c3.6-0.3,7,1.9,8.3,5.3C187.6,121.5,188,125.7,187.3,129.7z"/>
		<path class="st4" d="M187.4,133.2c-0.7,4-4.5,10.4-21.3,11.5c-25,1.7-28.6-4.4-28.6-4.4c3.3-1,6.7-1.7,10.3-2.2
			c0.5-0.1,1-0.1,1.5-0.2c0.6-0.1,1.2-0.1,1.7-0.2l0,0c1.5-0.2,3.1-0.3,4.6-0.4c9.5-0.7,18.8-0.1,25.3,0.5c0.8,0.1,1.6,0,2.4-0.3
			C185.4,136.7,186.9,135.1,187.4,133.2z"/>
		<path class="st5" d="M142.6,135.1c-1.8,1.5-3.5,3.2-5,5C138,139.6,139.7,137.6,142.6,135.1z"/>
		<path class="st5" d="M187.4,133.1c0.2-1.5,0.1-2.6,0-3.1C187.7,131,187.7,132.1,187.4,133.1z"/>
		<path class="st4" d="M278.1,140.2L278.1,140.2c-0.4-0.5-14.2-17.8-39.9-17.5h-0.4c-4.4,0.1-8.2,2.9-9.5,7.1
			c-0.7-4.1-0.3-8.2,1.1-12.1c1.3-3.4,4.7-5.6,8.3-5.3c7.7,0.6,22.9,3.8,40.5,18.3C278.1,130.7,299.5,151.8,278.1,140.2z"/>
		<path class="st1" d="M220.7,165c2.3-1.1,5-1.2,7.4-0.4c-2-18.9-8-54.5-17.1-54.5c-8.9,0-18.1,34-21.7,53.2
			c2.9-1.6,6.5-1.3,9.1,0.8c-8.5-0.3-10.6,10.6-10.6,10.6c0,9.5,9.2,17.3,20.5,17.3s20.5-7.7,20.5-17.3
			C228.8,174.6,228.1,166.7,220.7,165z"/>
		<path class="st6" d="M203.2,101.5l-0.2,0.3L203.2,101.5z"/>
		<path class="st6" d="M196.3,118.5c0.2-0.1,0.3-0.2,0.4-0.3c-0.5,0.4-1.1,0.7-1.7,0.9L196.3,118.5z"/>
		<path class="st6" d="M197.6,116.4l-0.8,1.6L197.6,116.4z"/>
		<path class="st6" d="M201.4,108.9l-0.7,1.3L201.4,108.9z"/>
		<path class="st6" d="M204.1,99.7l-0.4,0.9C203.8,100.3,204,100,204.1,99.7z"/>
		<path class="st6" d="M206.6,94.8l-0.8,1.5L206.6,94.8z"/>
		<path class="st6" d="M202.5,106.7l-0.3,0.5L202.5,106.7z"/>
		<path class="st6" d="M205.7,96.6l-0.4,0.8L205.7,96.6z"/>
		<path class="st6" d="M208.7,90.8c0,0,0.5-1.1,1-2.4L208.7,90.8z"/>
		<polygon class="st6" points="220.2,113.5 220.2,113.5 223.5,113.2 		"/>
		<path class="st6" d="M221.5,116.1l-0.2-1.7L221.5,116.1z"/>
		<path class="st6" d="M197.1,119.5l9.2-17.8L197.1,119.5z"/>
		<path class="st6" d="M204,103.8l-0.6,1.1L204,103.8z"/>
		<path class="st6" d="M205.9,100.1l-1,1.9L205.9,100.1z"/>
		<path class="st6" d="M206.3,101.7l-0.6,6.1c-1.1,0-2.2,0.7-2.6,1.8c0,1.9,2.5,2.3,2.5,2.3l-0.1,1l0,0l-0.2,3.1l6.4-0.3l-0.2-2.8
			l0,0l-0.1-1c0,0,2.5-0.4,2.4-2.3c-0.4-1.1-1.4-1.8-2.6-1.7l-1-12.9l-0.3-2.6c-1.1,2.2-2.3,4.5-3.4,6.6L206.3,101.7z"/>
		<path class="st6" d="M206.6,98.7l-0.4,0.8L206.6,98.7z"/>
		<path class="st6" d="M199.1,113.5l-1,1.9L199.1,113.5z"/>
		<path class="st6" d="M196.2,119.9l-3-0.3L196.2,119.9z"/>
		<path class="st6" d="M207.7,82.9c-1.5-0.1-2.9,1-3,2.6c-0.1,1.5,1,2.9,2.5,3.2c2.2,0.5,2.6-0.3,2.6-0.3c0.4-0.9,0.7-1.9,0.8-2.9
			C210.7,83.8,208.8,83,207.7,82.9z"/>
		<path class="st6" d="M197,113.7l0.8-1.5L197,113.7z"/>
		<path class="st6" d="M202.7,102.5l-2.8,5.5L202.7,102.5z"/>
		<path class="st6" d="M206.6,94.8l2.1-4c-0.7-0.1-1.3-0.3-1.9-0.5l0.1,1.4L206.6,94.8z"/>
		<path class="st6" d="M198.4,111.1l-0.5,0.9L198.4,111.1z"/>
		<path class="st6" d="M199.4,109l-0.8,1.5L199.4,109z"/>
		<polygon class="st5" points="205.4,115.8 205.2,118.3 205.2,118.3 212,118.1 211.8,115.6 		"/>
		<path class="st7" d="M197.1,119.5l9.2-17.8l0.3-2.9l-0.4,0.8l-0.3,0.6l-1,1.9l-0.9,1.8l-0.6,1.1l-0.9,1.8l-0.3,0.5l-0.9,1.7
			l-0.7,1.3l-1.7,3.3l-1,1.9l-0.5,1l-0.8,1.6c0,0,0,0,0,0.1c-0.1,0.2-0.2,0.3-0.4,0.3L195,119l0,0l-1.8,0.7l3.1,0.3
			C196.6,120,196.9,119.8,197.1,119.5z"/>
		<path class="st7" d="M205.7,111.8c0,0-2.5-0.4-2.5-2.3c-0.1,0.2-0.1,0.4-0.1,0.6c-0.2,2.4,2.5,2.7,2.5,2.7l0,0L205.7,111.8z"/>
		<path class="st7" d="M211.4,111.8l0.1,1l0,0c0,0,2.7-0.3,2.5-2.7c0-0.2-0.1-0.4-0.1-0.6C214,111.3,211.4,111.8,211.4,111.8z"/>
		<path class="st7" d="M206.8,77.2l1.2,1.5c0,0,0.4-9.4-0.2-21.5c-0.5-10.6-1.7-28.4-1.9-32.6c0-0.5-0.5-1-1-1l-1.6-0.1l2.6,54
			L206.8,77.2z"/>
		<path class="st7" d="M205.9,77.5l0.1,1c0,0-3.1,1.1-3.6,6.2s2.9,6.9,4.5,6.9l-0.1-1.4c-2.2-0.6-3.7-2.8-3.4-5.1
			c0.2-2.2,0.9-3.4,1.8-4.1c0.8-0.9,1.8-1.8,2.9-2.4l-1.3-1.5L205.9,77.5z"/>
		<path class="st7" d="M202.9,147.1l0.3-3c-2.5-1.2-4.7-6.7-4.7-6.7C197.8,144.3,202.9,147.1,202.9,147.1z"/>
		<path class="st0" d="M205.6,112.8L205.6,112.8c0,0-2.7-0.2-2.5-2.7c0-0.2,0.1-0.4,0.1-0.6c0.4-1.1,1.4-1.8,2.6-1.8l0.6-6.1
			l-9.2,17.8l0,0c-0.2,0.3-0.5,0.5-0.8,0.5l0,0l-3.1-0.3l-4.3,48l3.9,0.4l8.9-7.9l0.8-8.4l0.4-4.7c0,0-5-2.8-4.4-9.7s6-8.1,6-8.1
			l0.8-11l0.2-2.4V112.8z"/>
		<path class="st0" d="M197.9,112l0.5-0.9l0.3-0.6l0.8-1.5l0.6-1.1l2.8-5.4l0.3-0.6l0.2-0.3l0.5-0.9l0.4-0.9l1.2-2.3l0.4-0.8
			l0.1-0.3l0.8-1.5l0.3-3.2c-1.6,0-4.9-1.8-4.5-6.9s3.6-6.2,3.6-6.2l-0.1-1l-2.6-54l-2.1-0.2c-0.3,0-0.6,0.2-0.6,0.5l0,0l-6.9,89.6
			l3.3,0.3l0.8-1.5L197.9,112z"/>
		<path class="st7" d="M210.7,77.5l1.7-54.1l-1.6,0.2c-0.5,0-1,0.5-1,1c-0.2,4.2-1.1,22.1-1.4,32.7c-0.4,12,0.2,21.4,0.2,21.4
			l1.2-1.6L210.7,77.5z"/>
		<path class="st7" d="M210.3,91.6c1.7-0.3,4.5-2.2,4-7c-0.6-5.1-3.7-6.1-3.7-6.1v-1l-0.9-0.3l-1.2,1.6c1.4,0.8,2.5,1.9,3.5,3.1
			c0.4,0.8,0.5,1.8,0.4,2.7c0,0.2,0,0.3,0,0.4C212.6,86.5,211.6,88.9,210.3,91.6z"/>
		<path class="st7" d="M219.2,137.1c-1.1,5.2-4.6,6.8-4.6,6.8l0.3,3C214.9,146.9,219.9,144.1,219.2,137.1z"/>
		<path class="st0" d="M224.1,119.4l-3.1,0.3l-0.9-6.2l0,0l3.3-0.3L215,23.7c0-0.3-0.3-0.5-0.6-0.5l-2.1,0.2l-1.7,54.1v1
			c0,0,3.1,1,3.7,6.1c0.5,4.8-2.3,6.7-4,7l-0.3,0.6l0.3,2.6l1,12.9c1.1-0.1,2.2,0.6,2.6,1.7c0.1,0.2,0.1,0.4,0.1,0.6
			c0.3,2.4-2.5,2.7-2.5,2.7l0,0l0.2,2.8l0.2,2.5l1,11.1c0,0,5.4,1,6.1,7.9s-4.2,9.8-4.2,9.8l0.5,4.7l0.9,8.3l9.1,7.8l3.9-0.4
			L224.1,119.4z"/>
		<path class="st7" d="M220.2,113.5l0.9,6.2l3.1-0.3l-1.4-0.8h-0.1h-0.4c-0.8,0.1-1.4-0.5-1.5-1.2c0-0.5,0.2-1,0.7-1.3l-0.2-1.6
			l2.2-1.3L220.2,113.5L220.2,113.5z"/>
		<path class="st5" d="M222.1,116.7l-0.5,0.2l-0.1-0.8l0,0c-0.7,0.4-0.9,1.2-0.5,1.9c0.3,0.5,0.8,0.7,1.3,0.7L222.1,116.7z"/>
		<path class="st5" d="M223.2,116l0.3,0.2C223.4,116.1,223.3,116.1,223.2,116z"/>
		<path class="st5" d="M222.1,116.7l0.2,1.9h0.4h0.1c0.7-0.1,1.2-0.8,1.1-1.5c0-0.3-0.2-0.5-0.3-0.8L222.1,116.7z"/>
		<polygon class="st5" points="221.6,116.9 222.1,116.7 223.6,116.3 223.6,116.3 223.5,116.3 223.2,116 221.3,114.4 221.5,116.1 		
			"/>
		<path class="st5" d="M212.5,84.1L212.5,84.1L212.5,84.1C212.5,84,212.5,84,212.5,84.1c-0.4-1.9-1.9-3.4-3.8-3.5
			c-1.2-0.2-2.4,0-3.5,0.6c-0.9,0.6-1.6,1.8-1.8,4.1c-0.2,2.3,1.2,4.5,3.4,5.1c0.6,0.2,1.2,0.4,1.9,0.5l0,0l-2.1,4l-0.8,1.5
			l-0.2,0.3l-0.4,0.8l-1.2,2.3c0,0.1-0.1,0.2-0.1,0.3c0,0.1-0.1,0.2-0.1,0.2s0,0,0,0.1c-0.1,0.1-0.1,0.2-0.2,0.3l-0.5,0.9l-0.2,0.3
			l-0.3,0.6l-2.8,5.6l-0.5,1.1l-0.8,1.5l-0.3,0.6l-0.5,0.9v0.1l0,0l-0.1,0.1l-0.7,1.5l0,0c-2.2,4.3-2.1,5.1-2,5.2l0,0
			c0.1,0,0.3-0.1,0.5-0.2s0.3-0.1,0.5-0.2l0,0c0.1,0,0.1-0.1,0.2-0.1c0.2-0.1,0.3-0.2,0.5-0.3l0,0l0,0l0,0v-0.1l0.8-1.6l0.5-1l1-1.9
			l1.7-3.3l0.7-1.3l0.9-1.7l0.3-0.5l0.9-1.8l0.6-1.1l0.9-1.8l1-1.9l0.3-0.6l0.4-0.8l0,0l0,0l0,0l0,0c1.1-2.1,2.3-4.4,3.4-6.5l0,0
			l0.3-0.6l0,0l0,0c0.3-0.6,0.6-1.2,0.8-1.8c0.1-0.2,0.1-0.3,0.2-0.4c0,0,0,0,0-0.1s0.1-0.2,0.1-0.3c0.6-1.5,1-2.9,1-3.9v-0.4
			C212.5,84.4,212.5,84.2,212.5,84.1z M209.7,88.4L209.7,88.4C209.7,88.5,209.7,88.5,209.7,88.4c-0.1,0.1-0.1,0.1-0.1,0.2l0,0l0,0
			c-0.1,0.1-0.4,0.2-0.8,0.3c-0.4,0-0.9,0-1.6-0.1l0,0c-0.8-0.2-1.5-0.7-2-1.4c0-0.1-0.1-0.2-0.1-0.2c0-0.1-0.1-0.2-0.1-0.2
			c0-0.1-0.1-0.1-0.1-0.2s-0.1-0.2-0.1-0.2c0-0.1,0-0.2-0.1-0.3l0,0c0-0.2,0-0.4,0-0.6c0.1-1.5,1.5-2.7,3-2.5
			c0.8,0.1,1.8,0.4,2.4,1.1c0.1,0.1,0.2,0.3,0.3,0.4c0.1,0.3,0.2,0.6,0.2,1C210.4,86.5,210.1,87.5,209.7,88.4z"/>
		<path class="st0" d="M196.2,185.2c0,0-2.3-0.7-1.7-3.9s3.5-3.5,5.5-2s3.5,3.2,0.9,4.1S196.5,183.6,196.2,185.2z"/>
		<path class="st0" d="M214.7,186.7c0,0-1.5-3.7,1.4-4.8s4.9,0.7,4.5,2.4C220,186.7,215.4,185.5,214.7,186.7z"/>
		<path class="st4" d="M278.1,140.2c0,0-3.6,6.1-28.6,4.4c-16.8-1.1-20.6-7.4-21.3-11.5c0.5,1.9,2,3.5,4,4.2
			c0.8,0.2,1.6,0.3,2.4,0.3c0.7-0.1,1.4-0.1,2.2-0.2c0.8-0.1,1.6-0.1,2.4-0.2c0.3,0,0.6,0,0.8,0c0.1,0,0.2,0,0.3,0
			c0.6,0,1.1-0.1,1.7-0.1c0.3,0,0.7,0,1,0C253.6,136.6,267,136.9,278.1,140.2z"/>
		<path class="st5" d="M228.2,133.1c-0.3-1-0.3-2.1,0-3.2c0-0.1,0-0.1,0-0.2C228.2,130,227.9,131.4,228.2,133.1z"/>
		<path class="st0" d="M228.2,133.1c-0.3-1-0.3-2.1,0-3.2c0-0.1,0-0.1,0-0.2C228.2,130,227.9,131.4,228.2,133.1z"/>
		<path class="st0" d="M155.7,137.2L155.7,137.2c-1.6,0.1-3.1,0.2-4.6,0.4C152.6,137.4,154.1,137.3,155.7,137.2z"/>
		<path class="st8" d="M123.8,116.1c0,0,11.1-23.8,66.1-28.9"/>
		<path class="st8" d="M294,116.1c-30.4-13.9-11.1-23.8-66-28.9"/>
		<path class="st4" d="M187.8,256l0.7,0.1c0.4,0.1,1,0.1,1.8,0.2s1.6,0.1,2.6,0.2s2,0.2,3.2,0.2c0.6,0,1.1,0.1,1.7,0.1
			s1.2,0.1,1.8,0.1s1.2,0,1.9,0.1c0.3,0,0.6,0,0.9,0.1h1c0.6,0,1.3,0,1.9,0.1c0.6,0,1.3,0,1.9,0h1h1h1.9c0.7,0,1.3,0,2-0.1
			c0.6,0,1.3,0,2,0s1.3-0.1,1.9-0.2s1.3-0.1,2-0.1c1.3-0.2,2.5-0.3,3.8-0.3c0.6,0,1.2-0.1,1.8-0.2c0.6,0,1.2-0.1,1.8-0.1
			c1.2-0.1,2.3-0.1,3.2-0.2s1.9-0.1,2.6-0.1s1.4,0,1.8,0h0.7l0.4,0.6l-1.9,1.1l-2.2,1.3c-0.4,0.3-0.9,0.5-1.4,0.8l-1.6,0.7
			c-1.1,0.5-2.2,1.1-3.6,1.5l-4.1,1.3l-4.5,0.9c-1.6,0.1-3.2,0.4-4.8,0.4l-2.4-0.1c-0.4,0-0.8,0-1.2,0l-1.2-0.1L204,264l-2.2-0.5
			l-1.1-0.2l-1.1-0.3l-2-0.6c-1.3-0.5-2.5-0.9-3.6-1.5c-0.5-0.3-1.1-0.5-1.6-0.8l-1.3-0.8c-0.8-0.5-1.5-1-2.1-1.4s-1-0.7-1.3-1
			c-0.2-0.1-0.3-0.2-0.4-0.4L187.8,256z"/>
		<path class="st9" d="M156.5,235.8c15.7-22.5,45.9-31.6,73.1-27.7c14,2,28.4,7.6,36.4,19.2"/>
		<path class="st3" d="M166.8,63.5c0,0,16.8-13.2,0-33.2s-41.4-2.3-52.3,19.5S85.9,69.4,77.2,63.5C77.2,63.5,116.3,115.8,166.8,63.5
			z"/>
		<path class="st3" d="M307.1,83.7l2.4,61.4v29.4l-12.8,12.2c0,0,17.1-78.2-9.2-106.8S307.1,83.7,307.1,83.7z"/>
		<path class="st3" d="M106.4,83.7l-2.4,61.4v29.4l12.8,12.2c0,0-17.1-78.2,9.2-106.8S106.4,83.7,106.4,83.7z"/>
		<path class="st1" d="M104,295.4c0,0,15.4,34.8,103.6,34.8s101.9-34.8,101.9-34.8v88.9H104V295.4z"/>
		<path class="st4" d="M104,310.3c0,0,15.4,34.8,103.6,34.8s101.9-34.8,101.9-34.8v88.9H104V310.3z"/>
		<polygon class="st4" points="309.5,310.3 413.6,399.2 291.3,399.2 		"/>
		<polygon class="st4" points="104,310.3 0,399.2 122.2,399.2 		"/>
	</g>
</g>
</svg>
