<svg width="91" height="92" viewBox="0 0 91 92" fill="none" xmlns="http://www.w3.org/2000/svg">
<path fill-rule="evenodd" clip-rule="evenodd" d="M70.0626 54.0101L70.1535 53.6426L70.1822 53.2612C71.1532 40.3635 70.2541 30.7975 66.3426 22.926C62.4016 14.9951 55.7771 9.54238 47.0911 4.10253L42.7735 11.8183C51.0291 16.9886 55.7668 21.2594 58.4773 26.714C61.1891 32.1711 62.2373 39.5552 61.3567 51.6884C59.6485 58.5143 58.0766 62.4721 56.3301 65.1735C54.7662 67.5925 52.9193 69.2283 50.1131 71.0378C42.2002 71.9755 37.6169 71.0416 34.1844 68.6433C30.4984 66.0677 27.2231 61.1973 23.2866 52.0249C22.3169 45.7891 22.5174 41.9311 23.7666 38.8292C24.9768 35.8245 27.4113 32.9323 32.2328 29.2995C35.7431 29.3542 37.5616 29.6908 38.6398 30.214C39.3592 30.5631 40.1004 31.1358 40.8861 33.5244L40.956 33.7371L41.0454 33.9429C41.2958 34.52 41.5077 35.0443 41.6862 35.5265C43.9276 37.9656 44.9476 42.3737 44.0347 46.9432C43.2115 51.0641 41.0232 54.2799 38.4428 55.6587L39.0999 57.7861C41.5365 57.1168 43.7813 56.2087 45.7508 54.4375C47.6785 52.704 49.0099 50.4412 50.226 47.7271L50.3863 47.3693L50.4815 46.9847C51.1899 44.1221 51.5958 41.5217 51.382 38.7743C51.1718 36.0733 50.3896 33.5634 49.2113 30.8159C47.9016 26.9503 45.8005 23.817 42.0707 22.0071C38.7606 20.4009 34.7131 20.1569 30.3619 20.1736L29.0097 20.1788L27.9316 20.9595C21.954 25.288 17.7268 29.5135 15.533 34.9605C13.3294 40.4322 13.4524 46.4524 14.6214 53.6225L14.715 54.1963L14.9439 54.7358C19.0646 64.4495 23.2865 71.7759 29.4668 76.0942C35.8452 80.5511 43.371 81.1898 52.6071 79.971L53.4966 79.8536L54.2515 79.3854C58.0183 77.049 61.1766 74.5707 63.8098 70.4977C66.3645 66.5462 68.2411 61.3771 70.0626 54.0101Z" fill="#E97676"/>
</svg>
